<svg preserveAspectRatio="none" width="100%" height="100%" overflow="visible" style="display: block;" viewBox="0 0 792.705 1260.83" fill="none" xmlns="http://www.w3.org/2000/svg">
<g id="Ellipse 42" filter="url(#filter0_di_0_12)">
<ellipse cx="334.352" cy="595.414" rx="226.052" ry="460.114" fill="var(--fill-0, black)" fill-opacity="0.01" shape-rendering="crispEdges"/>
<path d="M334.353 149.3C388.486 149.3 441.408 194.368 481.63 276.238C521.406 357.198 546.404 470.026 546.404 595.414C546.404 720.802 521.405 833.63 481.63 914.59C441.408 996.459 388.486 1041.53 334.353 1041.53C280.219 1041.53 227.296 996.459 187.074 914.59C147.299 833.63 122.3 720.802 122.3 595.414C122.3 470.026 147.299 357.198 187.074 276.238C227.296 194.368 280.219 149.3 334.353 149.3Z" stroke="var(--stroke-0, white)" stroke-opacity="0.15" stroke-width="28" shape-rendering="crispEdges"/>
</g>
<defs>
<filter id="filter0_di_0_12" x="0" y="0" width="792.705" height="1260.83" filterUnits="userSpaceOnUse" color-interpolation-filters="sRGB">
<feFlood flood-opacity="0" result="BackgroundImageFix"/>
<feColorMatrix in="SourceAlpha" type="matrix" values="0 0 0 0 0 0 0 0 0 0 0 0 0 0 0 0 0 0 127 0" result="hardAlpha"/>
<feMorphology radius="31" operator="dilate" in="SourceAlpha" result="effect1_dropShadow_0_12"/>
<feOffset dx="62" dy="35"/>
<feGaussianBlur stdDeviation="69.65"/>
<feComposite in2="hardAlpha" operator="out"/>
<feColorMatrix type="matrix" values="0 0 0 0 0.521569 0 0 0 0 0.454902 0 0 0 0 0.737255 0 0 0 1 0"/>
<feBlend mode="normal" in2="BackgroundImageFix" result="effect1_dropShadow_0_12"/>
<feBlend mode="normal" in="SourceGraphic" in2="BackgroundImageFix" result="shape"/>
<feColorMatrix in="SourceAlpha" type="matrix" values="0 0 0 0 0 0 0 0 0 0 0 0 0 0 0 0 0 0 127 0" result="hardAlpha"/>
<feMorphology radius="18" operator="erode" in="SourceAlpha" result="effect2_innerShadow_0_12"/>
<feOffset dy="227"/>
<feGaussianBlur stdDeviation="13.75"/>
<feComposite in2="hardAlpha" operator="arithmetic" k2="-1" k3="1"/>
<feColorMatrix type="matrix" values="0 0 0 0 1 0 0 0 0 1 0 0 0 0 1 0 0 0 0.23 0"/>
<feBlend mode="normal" in2="shape" result="effect2_innerShadow_0_12"/>
<feBlend mode="normal" in="effect2_innerShadow_0_12" in2="effect1_dropShadow_0_12" result="effect2_innerShadow_0_12"/>
</filter>
</defs>
</svg>
