<svg preserveAspectRatio="none" width="100%" height="100%" overflow="visible" style="display: block;" viewBox="0 0 1727 1727" fill="none" xmlns="http://www.w3.org/2000/svg">
<g id="Perspective Grid" opacity="0.14">
<path id="Vector" d="M0.5 0.5V1726.5" stroke="var(--stroke-0, white)"/>
<path id="Vector_2" d="M75.5438 0.5V1726.5" stroke="var(--stroke-0, white)"/>
<path id="Vector_3" d="M150.587 0.5V1726.5" stroke="var(--stroke-0, white)"/>
<path id="Vector_4" d="M225.631 0.5V1726.5" stroke="var(--stroke-0, white)"/>
<path id="Vector_5" d="M300.674 0.5V1726.5" stroke="var(--stroke-0, white)"/>
<path id="Vector_6" d="M375.718 0.5V1726.5" stroke="var(--stroke-0, white)"/>
<path id="Vector_7" d="M450.762 0.5V1726.5" stroke="var(--stroke-0, white)"/>
<path id="Vector_8" d="M525.804 0.5V1726.5" stroke="var(--stroke-0, white)"/>
<path id="Vector_9" d="M600.848 0.5V1726.5" stroke="var(--stroke-0, white)"/>
<path id="Vector_10" d="M675.891 0.5V1726.5" stroke="var(--stroke-0, white)"/>
<path id="Vector_11" d="M750.936 0.5V1726.5" stroke="var(--stroke-0, white)"/>
<path id="Vector_12" d="M825.979 0.5V1726.5" stroke="var(--stroke-0, white)"/>
<path id="Vector_13" d="M901.021 0.5V1726.5" stroke="var(--stroke-0, white)"/>
<path id="Vector_14" d="M976.064 0.5V1726.5" stroke="var(--stroke-0, white)"/>
<path id="Vector_15" d="M1051.11 0.5V1726.5" stroke="var(--stroke-0, white)"/>
<path id="Vector_16" d="M1126.15 0.5V1726.5" stroke="var(--stroke-0, white)"/>
<path id="Vector_17" d="M1201.2 0.5V1726.5" stroke="var(--stroke-0, white)"/>
<path id="Vector_18" d="M1276.24 0.5V1726.5" stroke="var(--stroke-0, white)"/>
<path id="Vector_19" d="M1351.28 0.5V1726.5" stroke="var(--stroke-0, white)"/>
<path id="Vector_20" d="M1426.33 0.5V1726.5" stroke="var(--stroke-0, white)"/>
<path id="Vector_21" d="M1501.37 0.5V1726.5" stroke="var(--stroke-0, white)"/>
<path id="Vector_22" d="M1576.41 0.5V1726.5" stroke="var(--stroke-0, white)"/>
<path id="Vector_23" d="M1651.46 0.5V1726.5" stroke="var(--stroke-0, white)"/>
<path id="Vector_24" d="M1726.5 0.5V1726.5" stroke="var(--stroke-0, white)"/>
<path id="Vector_25" d="M0.5 0.5H1726.5" stroke="var(--stroke-0, white)"/>
<path id="Vector_26" d="M0.5 75.5453H1726.5" stroke="var(--stroke-0, white)"/>
<path id="Vector_27" d="M0.5 150.59H1726.5" stroke="var(--stroke-0, white)"/>
<path id="Vector_28" d="M0.5 225.631H1726.5" stroke="var(--stroke-0, white)"/>
<path id="Vector_29" d="M0.5 300.675H1726.5" stroke="var(--stroke-0, white)"/>
<path id="Vector_30" d="M0.5 375.72H1726.5" stroke="var(--stroke-0, white)"/>
<path id="Vector_31" d="M0.5 450.76H1726.5" stroke="var(--stroke-0, white)"/>
<path id="Vector_32" d="M0.5 525.806H1726.5" stroke="var(--stroke-0, white)"/>
<path id="Vector_33" d="M0.5 600.851H1726.5" stroke="var(--stroke-0, white)"/>
<path id="Vector_34" d="M0.5 675.891H1726.5" stroke="var(--stroke-0, white)"/>
<path id="Vector_35" d="M0.5 750.935H1726.5" stroke="var(--stroke-0, white)"/>
<path id="Vector_36" d="M0.5 825.98H1726.5" stroke="var(--stroke-0, white)"/>
<path id="Vector_37" d="M0.5 901.025H1726.5" stroke="var(--stroke-0, white)"/>
<path id="Vector_38" d="M0.5 976.065H1726.5" stroke="var(--stroke-0, white)"/>
<path id="Vector_39" d="M0.5 1051.11H1726.5" stroke="var(--stroke-0, white)"/>
<path id="Vector_40" d="M0.5 1126.15H1726.5" stroke="var(--stroke-0, white)"/>
<path id="Vector_41" d="M0.5 1201.19H1726.5" stroke="var(--stroke-0, white)"/>
<path id="Vector_42" d="M0.5 1276.24H1726.5" stroke="var(--stroke-0, white)"/>
<path id="Vector_43" d="M0.5 1351.28H1726.5" stroke="var(--stroke-0, white)"/>
<path id="Vector_44" d="M0.5 1426.33H1726.5" stroke="var(--stroke-0, white)"/>
<path id="Vector_45" d="M0.5 1501.37H1726.5" stroke="var(--stroke-0, white)"/>
<path id="Vector_46" d="M0.5 1576.41H1726.5" stroke="var(--stroke-0, white)"/>
<path id="Vector_47" d="M0.5 1651.46H1726.5" stroke="var(--stroke-0, white)"/>
<path id="Vector_48" d="M0.5 1726.5H1726.5" stroke="var(--stroke-0, white)"/>
</g>
</svg>
